<?xml version="1.0" standalone="no"?><!DOCTYPE svg PUBLIC "-//W3C//DTD SVG 1.1//EN" "http://www.w3.org/Graphics/SVG/1.1/DTD/svg11.dtd"><svg t="1646619355475" class="icon" viewBox="0 0 1024 1024" version="1.1" xmlns="http://www.w3.org/2000/svg" p-id="2170" xmlns:xlink="http://www.w3.org/1999/xlink" width="128" height="128"><defs><style type="text/css"></style></defs><path d="M313.77 788.043c-0.902-0.807-22.356-20.115-44.268-51.985-20.345-29.593-44.807-75.985-45.8-128.95-0.984-52.469 20.709-101.55 64.5-145.995-11.955-12.548-37.018-43.413-35.896-80.644 0.812-26.935 15.069-51.388 42.376-72.678l0.353-0.275 0.382-0.234c0.736-0.452 18.332-11.099 44.2-13.885 23.921-2.578 59.732 1.302 94.494 34.41l-11.034 11.586c-24.344-23.184-51.846-33.311-81.747-30.087-20.488 2.207-34.868 10.068-37.209 11.417-23.084 18.122-35.136 38.356-35.819 60.149-1.262 40.211 36.218 73.892 36.597 74.227l6.482 5.742-6.229 6.015c-44.371 42.743-66.393 89.829-65.452 139.953 1.766 94.108 83.901 168.563 84.731 169.304l-10.661 11.93zM703.494 787.043l-10.66-11.932c0.369-0.332 21.238-19.202 41.998-49.49 19.005-27.729 41.846-71.039 42.734-119.91 0.91-50.087-21.112-97.142-65.454-139.856l-6.253-6.023 6.513-5.74c0.372-0.329 37.852-34.009 36.59-74.221-0.684-21.79-12.73-42.021-35.809-60.141-2.351-1.341-17.206-9.404-37.871-11.493-29.66-3-56.938 7.148-81.095 30.155l-11.035-11.586c34.763-33.106 70.574-36.983 94.494-34.41 25.867 2.786 43.463 13.433 44.2 13.885l0.734 0.509c27.308 21.291 41.565 45.743 42.377 72.678 1.121 37.231-23.942 68.096-35.896 80.644 43.791 44.444 65.484 93.526 64.5 145.996-0.994 52.964-25.455 99.356-45.8 128.949-21.91 31.871-43.365 51.179-44.267 51.986z m-5.33-5.966l-5.334-5.963 0.004-0.003 5.33 5.966z" fill="#971E3B" p-id="2171"></path><path d="M432.323 354.177l-7.472-14.148c2.779-1.472 69.18-35.699 166.12-6.591l-4.602 15.324c-47.185-14.168-86.519-11.954-111.207-7.602-26.821 4.728-42.682 12.934-42.839 13.017zM513.013 801.626c-23.88 0-48.434-4.682-72.985-13.916-1.64-0.588-24.879-9.155-51.583-30.781-24.998-20.245-57.81-56.261-72.161-112.87l-0.035-0.144c-0.5-2.197-11.833-54.337 23.433-100.653 31.128-40.881 87.879-63.479 168.676-67.164l0.398-0.006c5.136 0 126.313 0.841 172.583 74.023 26.673 42.188 23.195 99.397-10.337 170.038l-0.231 0.487-0.314 0.439c-0.595 0.827-14.854 20.49-41.366 40.327-24.522 18.349-64.565 40.22-116.078 40.22zM327.94 641.206c13.555 53.358 44.487 87.31 68.058 106.397 25.528 20.675 47.88 28.74 48.103 28.819l0.107 0.039c23.21 8.734 46.36 13.164 68.806 13.164 48.048 0 85.557-20.438 108.563-37.583 23.115-17.228 36.688-34.704 38.837-37.562 31.422-66.434 35.051-119.573 10.784-157.953-42.728-67.581-157.308-68.435-162.422-68.437-76.91 3.528-130.547 24.486-159.433 62.294-31.422 41.125-21.811 88.892-21.403 90.822zM256.78 835.528c-0.82 0-1.69-0.239-2.624-0.781-4.025-2.336-2.17-6.88-1.561-8.373 0.694-1.7 1.851-4.165 3.536-7.535 9.144-18.287 40.233-56.381 41.553-57.993l7.741 6.33c-0.316 0.387-31.702 38.841-40.349 56.136a195.608 195.608 0 0 0-1.931 3.958l1.619 1.079c-2.362 3.542-4.787 7.179-7.984 7.179z" fill="#971E3B" p-id="2172"></path><path d="M506.455 845.778c-14.294 0-28.998-0.818-44.041-2.458-59.054-6.434-102.397-23.082-104.213-23.788l5.791-14.915c0.429 0.166 43.515 16.683 100.562 22.842 52.069 5.624 126.862 3.521 187.478-38.412l9.103 13.158c-28.693 19.85-62.567 33.087-100.68 39.343-17.179 2.819-35.235 4.23-54 4.23zM345.611 882.929c-1.58-22.121 10.507-46.379 11.022-47.4l8.929 4.502-4.464-2.251 4.466 2.249c-0.114 0.226-11.359 22.853-9.978 42.188l-9.975 0.712zM671.844 878.513l-15.521-3.881c-0.227 0.904-0.15 1.503-0.148 1.513-0.563-4.124-9.931-20.937-18.327-34.052l13.475-8.628c22.859 35.699 21.221 42.25 20.521 45.048zM747.586 816.98c-1.358-24.331-30.88-48.86-31.178-49.104l6.342-7.732c1.355 1.111 33.216 27.544 34.82 56.28l-9.984 0.556z" fill="#971E3B" p-id="2173"></path><path d="M525.763 920.415c-32.703 0-66.724-4.087-101.734-12.248-98.012-22.846-168.862-69.097-171.83-71.055l8.81-13.355c0.835 0.549 71.869 46.829 167.111 68.935 126.773 29.426 234.105 4.366 319.016-74.479l10.887 11.725c-49.053 45.549-106.305 74.24-170.166 85.276-20.074 3.469-40.807 5.201-62.094 5.201z m-269.16-89.98l4.403-6.68 0.002 0.002-4.405 6.678zM386.597 530.09s-6 53.996 28.499 82.495c0 0 89.996 74.996 188.991 0 0 0 37.498-17.999 31.498-52.497 0 0-4.499-38.998-14.999-41.998 0 0-79.496-63.178-215.989-6.09l-18 18.09zM516.395 707.437c-8.449 0-17.262-0.375-26.418-1.125-45.879-3.761-84.058-15.502-85.661-16l3.56-11.46c1.507 0.468 151.405 46.063 205.169-16.19l9.082 7.844c-13.876 16.067-34.192 27.036-60.385 32.602-13.57 2.882-28.752 4.329-45.347 4.329z" fill="#971E3B" p-id="2174"></path><path d="M460.593 444.593m-21.499 0a21.499 21.499 0 1 0 42.998 0 21.499 21.499 0 1 0-42.998 0Z" fill="#971E3B" p-id="2175"></path><path d="M555.593 445.593m-21.499 0a21.499 21.499 0 1 0 42.998 0 21.499 21.499 0 1 0-42.998 0Z" fill="#971E3B" p-id="2176"></path><path d="M394.096 410.096s-12-44.998 34.498-55.498c0 0 74.998-23.498 53.498 22.499 0 0-56.498 19.5-65.497 32.999 0 0-11.999 14.999-22.499 0zM527.59 382.68s1.499-52.08 68.996-25.082c0 0 37.494 17 9 52.498 0 0-20.809 14.999-33.653-12 0 0-18.844-13.499-29.344-9l-14.999-6.416zM326.317 426.695l-3.265-6.21c-2.331-4.432-22.347-44.004-7.695-68.261 6.767-11.204 19.219-16.885 37.008-16.885 10.062 0 22.138 1.86 35.894 5.527l10.358 2.762-5.596 9.144c-6.51 10.638-40.002 64.078-60.121 71.496l-6.583 2.427z m26.048-75.356c-11.799 0-19.643 3.081-23.313 9.157-6.743 11.164-0.674 31.938 4.525 44.613 10.868-9.458 27.425-32.064 39.888-51.314-7.957-1.631-15.025-2.456-21.1-2.456zM686.031 426.649l-59.426-55.067 2.314-5.225c0.467-1.054 11.72-25.816 36.445-25.816 13.749 0 28.372 7.904 43.464 23.492l0.42 0.434 0.35 0.492c0.383 0.538 9.331 13.348 5.881 29.279-2.519 11.632-10.706 21.539-24.333 29.444l-5.115 2.967zM646.388 368.1l41.632 38.579c6.549-4.73 10.506-9.984 11.788-15.669 1.752-7.771-1.96-14.656-3.014-16.401-11.591-11.823-22.447-18.067-31.429-18.067-9.182-0.001-15.582 6.746-18.977 11.558z" fill="#971E3B" p-id="2177"></path></svg>